<?xml version="1.0" standalone="no"?>
<!DOCTYPE svg PUBLIC "-//W3C//DTD SVG 20010904//EN"
 "http://www.w3.org/TR/2001/REC-SVG-20010904/DTD/svg10.dtd">
<svg version="1.0" xmlns="http://www.w3.org/2000/svg"
 width="512.000000pt" height="512.000000pt" viewBox="0 0 512.000000 512.000000"
 preserveAspectRatio="xMidYMid meet">
<metadata>
Created by potrace 1.11, written by Peter Selinger 2001-2013
</metadata>
<g transform="translate(0.000000,512.000000) scale(0.100000,-0.100000)"
fill="#000000" stroke="none">
<path d="M2234 5081 c2 -3 -24 -6 -57 -7 -56 -1 -100 -5 -210 -20 -21 -3 -53
-7 -70 -9 -18 -2 -47 -7 -64 -10 -18 -3 -45 -8 -60 -9 -16 -2 -28 -5 -28 -6 0
-2 -33 -9 -76 -15 -20 -2 -49 -9 -65 -15 -16 -6 -30 -11 -32 -10 -5 2 -78 -13
-87 -19 -5 -3 -14 -6 -20 -8 -5 -1 -20 -4 -32 -7 -13 -3 -33 -9 -45 -12 -34
-8 -41 -10 -68 -21 -14 -6 -28 -9 -32 -6 -5 2 -8 0 -8 -5 0 -5 -7 -9 -15 -10
-8 -1 -22 -3 -30 -4 -8 -1 -15 -6 -15 -11 0 -6 -3 -8 -6 -4 -3 3 -35 -8 -71
-24 -36 -16 -71 -29 -79 -29 -8 0 -14 -4 -14 -8 0 -8 -57 -32 -74 -31 -5 0
-12 -3 -15 -8 -3 -5 -32 -22 -63 -38 -32 -16 -58 -33 -58 -37 0 -4 -7 -8 -15
-8 -8 0 -15 -4 -15 -10 0 -5 -5 -10 -10 -10 -39 0 -289 -236 -290 -273 0 -5
-4 -5 -10 -2 -6 3 -7 -1 -4 -9 4 -10 1 -16 -7 -16 -7 0 -9 -3 -6 -7 4 -3 -1
-12 -11 -20 -9 -8 -11 -12 -5 -8 9 4 11 1 7 -9 -3 -9 -11 -16 -16 -16 -6 0 -8
-6 -5 -14 3 -8 0 -20 -8 -26 -19 -15 -22 -265 -3 -254 10 6 10 4 -1 -9 -7 -9
-9 -17 -4 -17 5 0 15 -11 21 -25 15 -33 15 -38 0 -30 -7 4 -2 -3 12 -14 21
-18 22 -20 5 -16 -15 4 -15 3 3 -7 16 -8 22 -18 18 -31 -3 -13 0 -17 9 -13 8
3 17 -6 23 -22 5 -15 24 -42 41 -60 18 -18 29 -37 26 -41 -3 -5 5 -7 17 -3 14
3 19 2 14 -6 -4 -7 -2 -12 4 -12 6 0 8 -5 5 -10 -4 -6 -1 -9 7 -8 7 2 12 -3
10 -10 -1 -8 2 -11 8 -7 5 3 10 1 10 -4 0 -6 3 -10 8 -9 4 2 8 -1 9 -7 1 -5
12 -13 25 -16 13 -3 22 -11 20 -17 -1 -7 5 -12 13 -12 15 0 46 -22 73 -52 8
-9 20 -14 26 -12 7 3 21 -4 33 -15 11 -11 24 -17 27 -14 3 4 6 1 6 -6 0 -7 4
-9 10 -6 5 3 10 1 10 -4 0 -6 9 -11 20 -11 11 0 20 -5 20 -11 0 -6 7 -9 15 -5
8 3 15 1 15 -4 0 -5 11 -12 25 -16 14 -3 25 -11 25 -17 0 -6 3 -8 6 -4 3 3 23
-3 45 -14 21 -12 44 -17 50 -13 8 4 9 3 5 -4 -5 -8 0 -12 13 -12 11 0 23 -4
26 -10 3 -5 16 -10 29 -10 12 0 26 -4 32 -10 5 -5 18 -11 29 -13 11 -1 25 -6
31 -9 6 -4 21 -9 35 -12 13 -2 36 -9 52 -15 15 -6 27 -8 27 -5 0 4 7 1 15 -6
8 -7 15 -10 15 -6 0 3 12 1 28 -5 15 -6 36 -13 47 -15 92 -18 132 -27 145 -32
8 -3 18 -4 23 -4 4 1 28 -3 55 -9 51 -12 110 -21 155 -23 15 0 27 -4 27 -7 0
-3 12 -6 28 -6 15 -1 52 -4 82 -7 30 -3 84 -9 120 -12 35 -3 66 -7 69 -9 2 -3
11 1 19 8 11 8 14 8 9 0 -10 -16 572 -16 592 0 12 9 13 9 7 0 -4 -8 -1 -13 9
-13 9 0 14 3 11 8 -2 4 19 7 47 6 29 0 62 3 75 7 14 6 22 5 22 -2 0 -8 4 -8
13 -2 6 5 30 11 53 12 41 2 79 8 79 11 0 1 18 3 40 4 22 1 46 5 53 9 6 5 17 5
22 2 6 -3 16 -3 23 2 6 4 21 8 32 9 20 2 60 9 105 20 14 3 34 7 45 8 11 2 21
5 23 6 1 1 11 4 22 5 11 1 21 3 23 5 4 3 42 12 60 13 9 1 17 4 17 7 0 4 6 7
13 7 12 0 121 29 147 40 20 8 41 14 62 17 9 1 23 8 32 15 9 8 16 10 16 6 0 -4
7 -2 15 5 8 6 18 9 24 6 5 -3 12 1 15 10 4 9 9 14 12 11 4 -3 23 2 43 12 20
11 38 19 41 19 13 0 60 26 60 33 0 5 6 6 14 3 8 -3 17 0 21 5 3 6 11 9 16 6 5
-4 9 -2 9 4 0 6 20 20 45 31 25 11 45 25 45 31 0 6 4 8 9 5 4 -3 19 3 31 14
13 11 29 20 37 20 8 0 11 5 8 10 -3 6 3 10 15 10 12 0 19 4 16 8 -3 4 13 19
35 32 21 14 39 31 39 38 0 7 5 10 10 7 6 -3 10 -2 10 4 0 5 9 13 20 16 11 4
18 11 15 16 -4 5 1 12 9 15 9 3 16 10 16 15 0 5 15 23 33 40 17 17 32 34 32
37 0 4 4 6 8 4 5 -1 6 2 3 7 -4 5 -2 12 4 16 5 3 10 15 10 27 0 13 5 18 14 15
10 -4 13 3 11 24 -1 17 0 28 3 25 3 -3 11 2 18 12 19 24 20 297 2 286 -8 -5
-8 -2 1 10 12 14 12 17 1 14 -9 -2 -15 6 -16 22 -1 13 -7 26 -13 28 -6 2 -9 8
-5 13 3 5 2 9 -3 9 -4 0 -14 13 -21 29 -7 16 -24 41 -37 55 -13 14 -22 26 -18
26 3 0 -9 13 -26 29 -16 15 -27 31 -24 35 3 3 2 6 -3 6 -6 0 -27 15 -47 33
-71 63 -86 75 -92 69 -3 -3 -5 -1 -5 5 0 6 -13 16 -30 23 -16 7 -30 15 -30 19
0 4 -17 15 -37 26 -21 11 -41 24 -45 30 -5 7 -8 7 -8 0 0 -6 -3 -6 -8 0 -9 13
-184 99 -224 110 -5 2 -11 4 -15 5 -5 1 -11 2 -15 1 -5 0 -8 4 -8 11 0 6 -3 9
-6 5 -4 -3 -19 0 -35 8 -15 8 -36 17 -46 18 -10 2 -25 7 -33 10 -31 13 -146
47 -167 50 -12 2 -26 6 -29 10 -4 4 -20 7 -36 7 -15 0 -28 5 -28 11 0 6 -7 9
-15 5 -8 -3 -35 1 -59 8 -25 8 -47 11 -50 8 -3 -2 -11 0 -18 6 -7 6 -17 10
-23 11 -5 0 -32 3 -60 7 -27 4 -59 8 -70 10 -11 1 -20 3 -20 4 0 1 -18 3 -40
6 -22 2 -49 6 -61 9 -22 5 -162 18 -201 19 -13 0 -23 4 -23 9 0 5 -7 4 -15 -3
-12 -10 -15 -10 -15 0 0 10 -3 10 -14 1 -10 -8 -16 -9 -21 -1 -4 7 -111 10
-321 9 -172 -1 -312 -4 -310 -8z m2437 -1098 c-12 -20 -14 -14 -5 12 4 9 9 14
11 11 3 -2 0 -13 -6 -23z"/>
<path d="M4682 3798 c-1 -15 -11 -50 -22 -78 -83 -211 -323 -405 -675 -547
-105 -42 -367 -125 -430 -136 -17 -3 -63 -12 -102 -21 -40 -9 -87 -18 -105
-21 -18 -3 -44 -7 -58 -10 -68 -12 -211 -29 -350 -42 -173 -16 -726 -9 -880
12 -35 4 -70 9 -165 20 -27 4 -108 18 -180 32 -694 133 -1176 422 -1270 760
-12 42 -13 3 -13 -312 0 -396 3 -424 60 -525 137 -243 450 -439 921 -576 67
-20 136 -38 152 -41 17 -2 55 -11 85 -18 30 -7 71 -16 90 -19 19 -3 78 -12
130 -20 52 -8 118 -17 145 -21 28 -3 64 -7 80 -9 199 -24 817 -25 915 -1 8 2
47 6 85 10 85 8 298 41 380 60 33 8 71 16 85 19 49 10 207 55 290 84 436 151
705 349 810 597 25 59 25 63 28 385 3 283 0 500 -6 418z"/>
<path d="M433 2455 c2 -345 4 -385 22 -430 72 -192 258 -364 542 -501 62 -30
119 -54 126 -54 7 0 17 -4 23 -9 22 -22 319 -111 499 -150 84 -18 108 -23 203
-37 20 -3 44 -7 52 -9 8 -2 46 -7 85 -11 38 -3 78 -8 90 -10 129 -25 851 -25
980 0 11 2 47 7 80 10 33 4 89 12 125 18 36 5 76 12 90 14 133 18 438 102 610
167 156 59 340 159 455 247 54 41 168 167 198 218 74 128 71 106 74 532 2 358
1 381 -13 330 -73 -266 -388 -503 -874 -658 -103 -33 -273 -78 -330 -87 -19
-3 -51 -10 -70 -15 -19 -5 -55 -11 -80 -14 -25 -4 -58 -8 -75 -11 -65 -11 -92
-14 -150 -20 -33 -4 -71 -8 -85 -11 -140 -22 -778 -22 -898 1 -9 1 -48 6 -87
9 -62 6 -151 18 -210 30 -11 2 -42 7 -70 11 -27 5 -52 9 -55 10 -3 1 -32 7
-65 15 -443 98 -792 258 -1000 457 -85 81 -154 190 -179 283 -14 51 -15 28
-13 -325z"/>
<path d="M431 1504 c-1 -197 3 -375 9 -405 67 -359 627 -685 1380 -805 133
-21 138 -22 205 -29 33 -3 71 -8 85 -10 60 -9 259 -18 430 -18 217 -1 387 8
560 29 168 20 176 22 320 50 607 120 1046 354 1208 644 57 101 60 130 60 525
0 315 -1 354 -13 313 -64 -234 -323 -452 -715 -605 -165 -65 -474 -148 -620
-168 -25 -3 -56 -8 -70 -10 -14 -3 -34 -7 -45 -9 -11 -2 -51 -7 -90 -11 -38
-4 -79 -9 -90 -11 -133 -25 -880 -24 -975 1 -8 2 -46 6 -85 10 -38 4 -88 10
-110 15 -22 5 -62 11 -90 15 -181 23 -491 111 -700 199 -353 149 -588 361
-641 580 -11 44 -12 2 -13 -300z"/>
</g>
</svg>
